<?xml version="1.0" encoding="utf-8"?>
<!DOCTYPE svg
  PUBLIC '-//W3C//DTD SVG 1.0//EN'
  'http://www.w3.org/TR/2001/REC-SVG-20010904/DTD/svg10.dtd'>
<svg width="1400.0" height="390.0" preserveAspectRatio="xMinYMin meet" viewBox="0 0 1400 390" xmlns="http://www.w3.org/2000/svg" version="1.0" fill-rule="evenodd" xmlns:xlink="http://www.w3.org/1999/xlink">
	<title>...</title>
	<desc>...</desc>
	<clipPath id="clip">
		<rect x="0" y="0" width="1400.0" height="390.0"/>
	</clipPath>
	<g id="group" transform="scale(1,-1) translate(0,-390)" style="clip-path: url(#clip)">
		<g transform="">
			<text x="388.90599999999995" y="356.0" style="font-family: Helvetica-Bold; font-size: 18px;fill: rgb(0%,0%,0%); stroke:none;" transform="translate(0,712) scale(1,-1)">Transformer layer 0: axis frequency prominence (dB over median power)</text>
			<path d="M 510,324 L 538,324 Z" style="stroke: rgb(14%,38%,92%); stroke-linecap: butt; stroke-width: 2;"/>
			<text x="545.0" y="320.0" style="font-family: Helvetica; font-size: 10px;fill: rgb(0%,0%,0%); stroke:none;" transform="translate(0,640) scale(1,-1)">BF16</text>
			<path d="M 660,324 L 688,324 Z" style="stroke: rgb(97%,45%,8%); stroke-linecap: butt; stroke-width: 2;"/>
			<text x="695.0" y="320.0" style="font-family: Helvetica; font-size: 10px;fill: rgb(0%,0%,0%); stroke:none;" transform="translate(0,640) scale(1,-1)">NanoQuant</text>
			<path d="M 810,324 L 838,324 Z" style="stroke: rgb(65%,33%,96%); stroke-linecap: butt; stroke-width: 2;"/>
			<text x="845.0" y="320.0" style="font-family: Helvetica; font-size: 10px;fill: rgb(0%,0%,0%); stroke:none;" transform="translate(0,640) scale(1,-1)">Difference</text>
			<text x="85.0" y="297.0" style="font-family: Helvetica-Bold; font-size: 12px;fill: rgb(0%,0%,0%); stroke:none;" transform="translate(0,594) scale(1,-1)">attn_q  (blk.0.attn_q.weight)</text>
			<g transform="">
				<g transform="">
					<g transform="">
						<path d="M 85,110 L 660,110 Z" style="stroke: rgb(0%,0%,0%); stroke-linecap: butt; stroke-width: 1;"/>
					</g>
					<g transform="">
						<path d="M 85,110 L 85,105 Z" style="stroke: rgb(0%,0%,0%); stroke-linecap: butt; stroke-width: 1;"/>
						<path d="M 228.75,110 L 228.75,105 Z" style="stroke: rgb(0%,0%,0%); stroke-linecap: butt; stroke-width: 1;"/>
						<path d="M 372.5,110 L 372.5,105 Z" style="stroke: rgb(0%,0%,0%); stroke-linecap: butt; stroke-width: 1;"/>
						<path d="M 516.25,110 L 516.25,105 Z" style="stroke: rgb(0%,0%,0%); stroke-linecap: butt; stroke-width: 1;"/>
						<path d="M 660,110 L 660,105 Z" style="stroke: rgb(0%,0%,0%); stroke-linecap: butt; stroke-width: 1;"/>
					</g>
					<g transform="">
						<g transform=" matrix(1,0,0,1,85,105)">
							<text x="-11.25" y="-10.0" style="font-family: Times-Roman; font-size: 10px;fill: rgb(0%,0%,0%); stroke:none;" transform="translate(0,-20) scale(1,-1)">0.000</text>
						</g>
						<g transform=" matrix(1,0,0,1,228.75,105)">
							<text x="-11.25" y="-10.0" style="font-family: Times-Roman; font-size: 10px;fill: rgb(0%,0%,0%); stroke:none;" transform="translate(0,-20) scale(1,-1)">0.125</text>
						</g>
						<g transform=" matrix(1,0,0,1,372.5,105)">
							<text x="-11.25" y="-10.0" style="font-family: Times-Roman; font-size: 10px;fill: rgb(0%,0%,0%); stroke:none;" transform="translate(0,-20) scale(1,-1)">0.250</text>
						</g>
						<g transform=" matrix(1,0,0,1,516.25,105)">
							<text x="-11.25" y="-10.0" style="font-family: Times-Roman; font-size: 10px;fill: rgb(0%,0%,0%); stroke:none;" transform="translate(0,-20) scale(1,-1)">0.375</text>
						</g>
						<g transform=" matrix(1,0,0,1,660,105)">
							<text x="-11.25" y="-10.0" style="font-family: Times-Roman; font-size: 10px;fill: rgb(0%,0%,0%); stroke:none;" transform="translate(0,-20) scale(1,-1)">0.500</text>
						</g>
					</g>
				</g>
				<g transform="">
					<g transform="">
						<path d="M 85,110 L 85,255 Z" style="stroke: rgb(0%,0%,0%); stroke-linecap: butt; stroke-width: 1;"/>
					</g>
					<g transform="">
						<path d="M 85,110 L 80,110 Z" style="stroke: rgb(0%,0%,0%); stroke-linecap: butt; stroke-width: 1;"/>
						<path d="M 85,146.25 L 80,146.25 Z" style="stroke: rgb(0%,0%,0%); stroke-linecap: butt; stroke-width: 1;"/>
						<path d="M 85,182.5 L 80,182.5 Z" style="stroke: rgb(0%,0%,0%); stroke-linecap: butt; stroke-width: 1;"/>
						<path d="M 85,218.75 L 80,218.75 Z" style="stroke: rgb(0%,0%,0%); stroke-linecap: butt; stroke-width: 1;"/>
						<path d="M 85,255 L 80,255 Z" style="stroke: rgb(0%,0%,0%); stroke-linecap: butt; stroke-width: 1;"/>
					</g>
					<g transform="">
						<g transform=" matrix(1,0,0,1,80,110)">
							<text x="-15.83" y="-4.0" style="font-family: Times-Roman; font-size: 10px;fill: rgb(0%,0%,0%); stroke:none;" transform="translate(0,-8) scale(1,-1)">-1.0</text>
						</g>
						<g transform=" matrix(1,0,0,1,80,146.25)">
							<text x="-12.5" y="-4.0" style="font-family: Times-Roman; font-size: 10px;fill: rgb(0%,0%,0%); stroke:none;" transform="translate(0,-8) scale(1,-1)">0.0</text>
						</g>
						<g transform=" matrix(1,0,0,1,80,182.5)">
							<text x="-12.5" y="-4.0" style="font-family: Times-Roman; font-size: 10px;fill: rgb(0%,0%,0%); stroke:none;" transform="translate(0,-8) scale(1,-1)">1.0</text>
						</g>
						<g transform=" matrix(1,0,0,1,80,218.75)">
							<text x="-12.5" y="-4.0" style="font-family: Times-Roman; font-size: 10px;fill: rgb(0%,0%,0%); stroke:none;" transform="translate(0,-8) scale(1,-1)">2.0</text>
						</g>
						<g transform=" matrix(1,0,0,1,80,255)">
							<text x="-12.5" y="-4.0" style="font-family: Times-Roman; font-size: 10px;fill: rgb(0%,0%,0%); stroke:none;" transform="translate(0,-8) scale(1,-1)">3.0</text>
						</g>
					</g>
				</g>
				<g transform="">
					<polyline points="85.99826 115.1662, 86.99653 151.7334, 87.99479 153.1284, 88.99306 141.9864, 89.99132 151.5074, 90.98958 159.1957, 91.98785 136.7703, 92.98611 142.3681, 93.98438 125.4587, 94.98264 148.5101, 95.9809 142.8146, 96.97917 137.3142, 97.97743 142.2072, 98.97569 141.8184, 99.97396 146.0548, 100.9722 160.8451, 101.9705 138.5299, 102.9688 151.7168, 103.967 169.5192, 104.9653 141.7672, 105.9635 135.8409, 106.9618 134.4757, 107.9601 120.7763, 108.9583 143.3046, 109.9566 151.4898, 110.9549 143.8335, 111.9531 126.017, 112.9514 154.4581, 113.9497 129.9115, 114.9479 144.3891, 115.9462 131.6016, 116.9444 165.7454, 117.9427 147.2803, 118.941 132.0247, 119.9392 134.2982, 120.9375 129.6357, 121.9358 179.4008, 122.934 180.7248, 123.9323 163.4591, 124.9306 131.0868, 125.9288 144.0237, 126.9271 148.3412, 127.9253 151.0779, 128.9236 120.6722, 129.9219 134.559, 130.9201 150.6668, 131.9184 126.4169, 132.9167 157.8357, 133.9149 158.3445, 134.9132 182.9591, 135.9115 161.8208, 136.9097 147.8992, 137.908 150.9182, 138.9062 147.1103, 139.9045 162.5356, 140.9028 135.8245, 141.901 145.5661, 142.8993 150.6956, 143.8976 131.458, 144.8958 135.3193, 145.8941 146.2591, 146.8924 153.9641, 147.8906 148.1987, 148.8889 175.6254, 149.8872 140.7533, 150.8854 145.48, 151.8837 134.0501, 152.8819 176.8394, 153.8802 166.948, 154.8785 171.1616, 155.8767 153.1344, 156.875 177.5639, 157.8733 139.5323, 158.8715 139.193, 159.8698 150.5726, 160.8681 143.0103, 161.8663 148.898, 162.8646 136.7174, 163.8628 131.0024, 164.8611 144.3716, 165.8594 139.8131, 166.8576 134.0534, 167.8559 171.5499, 168.8542 164.1627, 169.8524 132.9974, 170.8507 146.7912, 171.849 149.9706, 172.8472 142.4249, 173.8455 145.6969, 174.8438 152.6877, 175.842 134.5431, 176.8403 160.2211, 177.8385 142.65, 178.8368 140.9769, 179.8351 141.2239, 180.8333 149.593, 181.8316 154.6267, 182.8299 143.759, 183.8281 150.4622, 184.8264 136.6973, 185.8247 138.2418, 186.8229 164.4825, 187.8212 159.185, 188.8194 158.7856, 189.8177 152.8665, 190.816 160.2464, 191.8142 154.9699, 192.8125 177.337, 193.8108 127.2515, 194.809 136.1241, 195.8073 140.9905, 196.8056 131.2379, 197.8038 134.8886, 198.8021 164.1645, 199.8003 130.6936, 200.7986 141.3499, 201.7969 171.3104, 202.7951 154.9899, 203.7934 127.1898, 204.7917 141.285, 205.7899 150.1077, 206.7882 155.4172, 207.7865 127.3349, 208.7847 136.4265, 209.783 158.9965, 210.7812 158.0709, 211.7795 148.9514, 212.7778 144.5732, 213.776 140.7709, 214.7743 146.4995, 215.7726 153.8664, 216.7708 139.2177, 217.7691 129.5338, 218.7674 138.7342, 219.7656 126.8022, 220.7639 135.8584, 221.7622 135.9755, 222.7604 137.796, 223.7587 153.4713, 224.7569 156.1901, 225.7552 158.844, 226.7535 115.7483, 227.7517 142.9646, 228.75 164.3922, 229.7483 144.003, 230.7465 140.0637, 231.7448 155.7613, 232.7431 127.446, 233.7413 142.2958, 234.7396 129.9748, 235.7379 126.0981, 236.7361 130.3467, 237.7344 138.7537, 238.7326 130.6083, 239.7309 120.2208, 240.7292 149.8593, 241.7274 171.1727, 242.7257 141.2832, 243.724 151.9426, 244.7222 137.244, 245.7205 135.2158, 246.7188 129.8327, 247.717 151.927, 248.7153 140.4705, 249.7135 125.1419, 250.7118 160.0047, 251.7101 174.4392, 252.7083 146.6977, 253.7066 158.5397, 254.7049 137.8842, 255.7031 163.0738, 256.7014 138.9715, 257.6996 130.2733, 258.6979 152.2933, 259.6962 143.3819, 260.6944 168.3651, 261.6927 162.5304, 262.691 129.8484, 263.6892 148.6085, 264.6875 136.6646, 265.6858 144.941, 266.684 139.2401, 267.6823 145.414, 268.6806 149.8404, 269.6788 147.6037, 270.6771 162.397, 271.6754 144.7686, 272.6736 143.6496, 273.6719 170.4463, 274.6701 122.355, 275.6684 147.3798, 276.6667 128.7923, 277.6649 143.3115, 278.6632 166.6814, 279.6615 144.0928, 280.6597 146.8363, 281.658 130.7462, 282.6562 161.671, 283.6545 145.577, 284.6528 147.966, 285.651 140.6703, 286.6493 149.6241, 287.6476 116.7597, 288.6458 136.2376, 289.6441 151.9245, 290.6424 137.4085, 291.6406 169.8308, 292.6389 147.3017, 293.6371 146.7433, 294.6354 168.6896, 295.6337 155.1954, 296.6319 157.7996, 297.6302 159.8504, 298.6285 142.9967, 299.6267 148.9638, 300.625 130.0491, 301.6233 148.5722, 302.6215 141.3033, 303.6198 139.3415, 304.6181 122.5539, 305.6163 145.2767, 306.6146 152.338, 307.6129 152.1921, 308.6111 122.6227, 309.6094 159.7473, 310.6076 146.76, 311.6059 159.8957, 312.6042 153.3813, 313.6024 120.6866, 314.6007 185.1612, 315.599 163.6731, 316.5972 137.3242, 317.5955 141.6747, 318.5938 147.6382, 319.592 143.3051, 320.5903 128.0992, 321.5885 156.998, 322.5868 180.2639, 323.5851 131.2829, 324.5833 151.3818, 325.5816 163.1473, 326.5799 161.9556, 327.5781 152.357, 328.5764 147.3191, 329.5746 168.8368, 330.5729 147.3692, 331.5712 150.9903, 332.5694 133.2088, 333.5677 158.0816, 334.566 146.1668, 335.5642 137.7724, 336.5625 130.2269, 337.5608 153.9706, 338.559 155.8654, 339.5573 142.409, 340.5556 129.136, 341.5538 150.3687, 342.5521 135.0796, 343.5504 144.0687, 344.5486 144.107, 345.5469 139.7898, 346.5451 165.6071, 347.5434 128.8708, 348.5417 126.8892, 349.5399 182.4653, 350.5382 114.5927, 351.5365 126.0992, 352.5347 178.5394, 353.533 148.8615, 354.5312 132.0546, 355.5295 149.0689, 356.5278 139.6316, 357.526 156.7021, 358.5243 194.6529, 359.5226 163.777, 360.5208 141.714, 361.5191 137.3863, 362.5174 150.6127, 363.5156 156.3903, 364.5139 135.9491, 365.5121 146.9039, 366.5104 140.289, 367.5087 133.4568, 368.5069 167.9011, 369.5052 181.5395, 370.5035 145.606, 371.5017 128.7217, 372.5 139.8012, 373.4983 148.0222, 374.4965 134.1788, 375.4948 181.277, 376.493 124.5434, 377.4913 145.2292, 378.4896 167.2452, 379.4879 156.8541, 380.4861 124.9881, 381.4844 125.8018, 382.4826 148.5407, 383.4809 136.5545, 384.4792 156.1325, 385.4774 152.35, 386.4757 145.7631, 387.474 177.8123, 388.4722 129.3721, 389.4705 129.713, 390.4688 133.3796, 391.467 166.6627, 392.4653 141.5752, 393.4635 147.801, 394.4618 139.9784, 395.4601 163.6469, 396.4583 144.9078, 397.4566 143.018, 398.4549 171.7465, 399.4531 167.4345, 400.4514 154.7182, 401.4496 147.1258, 402.4479 141.3815, 403.4462 165.3037, 404.4445 168.7236, 405.4427 128.0867, 406.441 139.4317, 407.4392 154.8927, 408.4375 142.6322, 409.4358 173.7251, 410.434 158.3308, 411.4323 153.3038, 412.4305 147.905, 413.4288 141.9087, 414.4271 148.1509, 415.4254 146.7338, 416.4236 145.027, 417.4219 151.557, 418.4201 148.4989, 419.4184 171.0518, 420.4167 128.5079, 421.4149 140.5595, 422.4132 155.33, 423.4115 146.0339, 424.4097 163.9778, 425.408 174.1108, 426.4062 158.6342, 427.4045 156.0094, 428.4028 124.3825, 429.401 138.0944, 430.3993 145.9235, 431.3976 149.0044, 432.3958 134.1682, 433.3941 155.6554, 434.3924 138.9492, 435.3906 161.4047, 436.3889 160.7476, 437.3871 139.3329, 438.3854 140.7242, 439.3837 133.7198, 440.382 125.2547, 441.3802 142.5492, 442.3785 138.6117, 443.3767 143.3657, 444.375 142.119, 445.3733 139.1737, 446.3715 135.6154, 447.3698 143.6653, 448.368 161.3504, 449.3663 142.8606, 450.3646 177.3554, 451.3629 147.3053, 452.3611 129.5146, 453.3594 183.268, 454.3576 125.2827, 455.3559 146.3373, 456.3542 149.3753, 457.3524 134.7944, 458.3507 156.3066, 459.349 146.8249, 460.3472 160.565, 461.3455 145.7439, 462.3438 149.4868, 463.342 143.5055, 464.3403 165.6691, 465.3385 123.765, 466.3368 122.3307, 467.3351 157.7914, 468.3333 154.6507, 469.3316 148.9611, 470.3299 130.5915, 471.3281 141.8438, 472.3264 141.9127, 473.3246 148.8541, 474.3229 155.5229, 475.3212 134.0314, 476.3195 128.6425, 477.3177 136.7347, 478.316 164.1423, 479.3142 175.1818, 480.3125 148.8052, 481.3108 113.6062, 482.309 134.2596, 483.3073 130.7365, 484.3055 176.2109, 485.3038 159.9478, 486.3021 160.2713, 487.3004 142.2084, 488.2986 132.416, 489.2969 150.4315, 490.2951 134.3663, 491.2934 146.2409, 492.2917 135.7361, 493.2899 150.5602, 494.2882 147.1922, 495.2865 138.7744, 496.2847 151.9035, 497.283 146.9578, 498.2812 165.5991, 499.2795 145.5863, 500.2778 149.9951, 501.276 139.1371, 502.2743 138.095, 503.2726 146.3904, 504.2708 135.4611, 505.2691 135.9566, 506.2674 134.5361, 507.2656 151.1259, 508.2639 167.3606, 509.2621 170.3784, 510.2604 137.9474, 511.2587 157.0669, 512.257 155.5876, 513.2552 147.5439, 514.2535 128.459, 515.2517 139.1038, 516.25 133.7868, 517.2483 133.1671, 518.2465 134.0201, 519.2448 157.5144, 520.243 163.0509, 521.2413 153.3199, 522.2396 162.6783, 523.2379 150.7778, 524.2361 154.0443, 525.2344 176.9257, 526.2326 135.6079, 527.2309 136.745, 528.2292 151.9549, 529.2274 139.8214, 530.2257 141.7608, 531.224 152.3179, 532.2222 147.4859, 533.2205 147.6474, 534.2188 171.1248, 535.217 174.8951, 536.2153 151.896, 537.2135 122.5855, 538.2118 139.3919, 539.2101 147.8341, 540.2083 141.9697, 541.2066 150.3647, 542.2049 161.0763, 543.2031 139.2141, 544.2014 150.1509, 545.1996 159.2922, 546.1979 155.0309, 547.1962 146.3739, 548.1945 137.1947, 549.1927 153.141, 550.191 165.1498, 551.1892 149.8623, 552.1875 142.2623, 553.1858 148.9077, 554.184 146.9616, 555.1823 141.3473, 556.1805 144.6633, 557.1788 180.1994, 558.1771 135.5438, 559.1754 142.9788, 560.1736 160.6485, 561.1719 155.0312, 562.1701 162.2489, 563.1684 164.5288, 564.1667 170.7874, 565.1649 138.676, 566.1632 149.0929, 567.1615 165.9115, 568.1597 150.8344, 569.158 157.4029, 570.1562 145.9679, 571.1545 159.682, 572.1528 160.6615, 573.151 180.2113, 574.1493 124.0687, 575.1476 185.4212, 576.1458 144.162, 577.1441 151.3368, 578.1424 132.2966, 579.1406 129.0555, 580.1389 147.6109, 581.1371 174.4093, 582.1354 134.4955, 583.1337 155.5708, 584.132 140.6409, 585.1302 161.4825, 586.1285 171.9272, 587.1267 130.4503, 588.125 139.9248, 589.1233 120.0754, 590.1215 142.899, 591.1198 145.9135, 592.118 146.6942, 593.1163 157.7213, 594.1146 141.7209, 595.1129 139.9524, 596.1111 136.167, 597.1094 149.528, 598.1076 139.1883, 599.1059 132.1128, 600.1042 154.3824, 601.1024 146.4154, 602.1007 132.7477, 603.099 144.8595, 604.0972 136.9691, 605.0955 155.1914, 606.0938 132.3049, 607.092 162.7027, 608.0903 167.9303, 609.0885 151.5233, 610.0868 140.618, 611.0851 123.7613, 612.0833 143.0167, 613.0816 168.6516, 614.0799 137.0737, 615.0781 143.4909, 616.0764 123.5346, 617.0746 179.7727, 618.0729 146.6127, 619.0712 133.3984, 620.0695 132.0703, 621.0677 152.0347, 622.066 139.8612, 623.0642 152.1018, 624.0625 145.267, 625.0608 157.8199, 626.059 169.0689, 627.0573 131.788, 628.0555 148.2391, 629.0538 145.9771, 630.0521 138.3687, 631.0504 159.9139, 632.0486 130.5083, 633.0469 132.3494, 634.0451 134.2947, 635.0434 125.3469, 636.0417 161.8137, 637.0399 146.4938, 638.0382 165.8672, 639.0365 156.9831, 640.0347 151.7822, 641.033 141.0425, 642.0312 151.0853, 643.0295 119.7541, 644.0278 175.4191, 645.026 144.5306, 646.0243 129.4331, 647.0226 141.3172, 648.0208 138.8583, 649.0191 163.8068, 650.0174 159.9751, 651.0156 126.0603, 652.0139 171.4458, 653.0121 135.483, 654.0104 190.7131, 655.0087 146.7051, 656.007 128.5989, 657.0052 162.1013, 658.0035 149.3473, 659.0017 132.9979" style="stroke: rgb(14%,38%,92%); stroke-linecap: round; stroke-width: 1.2; fill: None; fill-rule: evenodd;"/>
					<polyline points="85.99826 114.5582, 86.99653 148.9988, 87.99479 152.8361, 88.99306 141.043, 89.99132 155.6416, 90.98958 165.5442, 91.98785 138.3344, 92.98611 150.9717, 93.98438 128.9045, 94.98264 145.1769, 95.9809 133.7875, 96.97917 136.3535, 97.97743 141.1037, 98.97569 137.2608, 99.97396 151.385, 100.9722 165.9559, 101.9705 125.6674, 102.9688 150.3309, 103.967 167.6711, 104.9653 139.5369, 105.9635 130.439, 106.9618 133.5616, 107.9601 118.1055, 108.9583 150.4438, 109.9566 146.3523, 110.9549 143.9353, 111.9531 126.7081, 112.9514 157.7249, 113.9497 131.8395, 114.9479 148.6052, 115.9462 122.947, 116.9444 170.2631, 117.9427 147.7749, 118.941 126.905, 119.9392 118.6069, 120.9375 128.1436, 121.9358 186.9987, 122.934 184.468, 123.9323 170.5806, 124.9306 133.6584, 125.9288 147.4439, 126.9271 152.8101, 127.9253 153.1134, 128.9236 113.9186, 129.9219 126.1706, 130.9201 151.3217, 131.9184 122.4928, 132.9167 160.2836, 133.9149 167.0055, 134.9132 196.1595, 135.9115 163.2405, 136.9097 158.5275, 137.908 154.5551, 138.9062 148.6921, 139.9045 163.7683, 140.9028 133.1611, 141.901 138.1501, 142.8993 159.1552, 143.8976 130.5713, 144.8958 138.4456, 145.8941 152.1975, 146.8924 149.9884, 147.8906 146.8046, 148.8889 184.5876, 149.8872 142.8089, 150.8854 145.7967, 151.8837 131.6277, 152.8819 181.9228, 153.8802 173.1298, 154.8785 178.3961, 155.8767 156.1545, 156.875 187.1524, 157.8733 140.0653, 158.8715 129.8913, 159.8698 145.1648, 160.8681 138.6992, 161.8663 148.2991, 162.8646 136.3428, 163.8628 126.5706, 164.8611 135.7026, 165.8594 136.3149, 166.8576 127.6281, 167.8559 173.3084, 168.8542 165.6262, 169.8524 135.0868, 170.8507 142.6315, 171.849 145.9064, 172.8472 140.1161, 173.8455 155.7452, 174.8438 153.5571, 175.842 130.6818, 176.8403 156.4367, 177.8385 139.0083, 178.8368 142.3067, 179.8351 137.2879, 180.8333 150.2061, 181.8316 155.412, 182.8299 136.1095, 183.8281 146.2569, 184.8264 137.5366, 185.8247 137.9065, 186.8229 162.9493, 187.8212 151.4845, 188.8194 163.8791, 189.8177 155.7196, 190.816 164.8739, 191.8142 152.9445, 192.8125 181.8826, 193.8108 128.3431, 194.809 129.8719, 195.8073 141.6971, 196.8056 124.9183, 197.8038 141.81, 198.8021 168.9107, 199.8003 132.0944, 200.7986 140.1068, 201.7969 177.9252, 202.7951 156.3262, 203.7934 123.2699, 204.7917 143.5884, 205.7899 144.691, 206.7882 154.1748, 207.7865 120.6241, 208.7847 124.4752, 209.783 159.9831, 210.7812 153.1873, 211.7795 154.7644, 212.7778 134.9586, 213.776 146.5734, 214.7743 144.3031, 215.7726 152.7791, 216.7708 139.2872, 217.7691 125.0006, 218.7674 143.3674, 219.7656 122.1581, 220.7639 127.3664, 221.7622 122.2582, 222.7604 133.3887, 223.7587 152.595, 224.7569 159.9493, 225.7552 160.4828, 226.7535 115.1237, 227.7517 139.0277, 228.75 170.7306, 229.7483 148.4894, 230.7465 142.1287, 231.7448 161.9108, 232.7431 117.0208, 233.7413 144.2815, 234.7396 126.0275, 235.7379 124.0196, 236.7361 131.1544, 237.7344 141.4126, 238.7326 137.8644, 239.7309 116.6222, 240.7292 153.1788, 241.7274 178.6093, 242.7257 136.3703, 243.724 153.0096, 244.7222 126.9825, 245.7205 129.8863, 246.7188 122.5522, 247.717 153.2729, 248.7153 137.8812, 249.7135 125.5526, 250.7118 164.515, 251.7101 178.5056, 252.7083 153.2379, 253.7066 166.0194, 254.7049 143.6084, 255.7031 168.8007, 256.7014 133.5138, 257.6996 128.5871, 258.6979 158.1323, 259.6962 141.532, 260.6944 168.3398, 261.6927 164.2921, 262.691 119.64, 263.6892 152.0815, 264.6875 133.4991, 265.6858 146.327, 266.684 145.4754, 267.6823 148.0438, 268.6806 151.1961, 269.6788 149.4953, 270.6771 161.3427, 271.6754 135.9943, 272.6736 134.1582, 273.6719 167.7343, 274.6701 110.6678, 275.6684 155.5031, 276.6667 118.5019, 277.6649 139.0351, 278.6632 166.6379, 279.6615 144.8281, 280.6597 148.4369, 281.658 132.5034, 282.6562 163.9897, 283.6545 146.6457, 284.6528 143.6191, 285.651 143.3777, 286.6493 152.0783, 287.6476 108.6748, 288.6458 128.7172, 289.6441 152.3843, 290.6424 133.4223, 291.6406 168.7555, 292.6389 146.3585, 293.6371 143.7151, 294.6354 174.6481, 295.6337 158.8067, 296.6319 157.3543, 297.6302 161.3845, 298.6285 144.711, 299.6267 158.4413, 300.625 129.0606, 301.6233 153.4697, 302.6215 139.699, 303.6198 141.6567, 304.6181 116.7457, 305.6163 154.1224, 306.6146 152.6852, 307.6129 149.1701, 308.6111 117.1279, 309.6094 166.4656, 310.6076 144.9295, 311.6059 161.4134, 312.6042 157.0847, 313.6024 111.7461, 314.6007 198.0401, 315.599 163.6668, 316.5972 143.3744, 317.5955 138.2894, 318.5938 147.5975, 319.592 150.7872, 320.5903 118.2795, 321.5885 151.7544, 322.5868 182.3863, 323.5851 116.1999, 324.5833 149.233, 325.5816 167.1982, 326.5799 166.123, 327.5781 150.265, 328.5764 150.9565, 329.5746 175.5521, 330.5729 144.9793, 331.5712 150.8925, 332.5694 118.3797, 333.5677 157.8426, 334.566 147.517, 335.5642 132.7533, 336.5625 120.9936, 337.5608 156.6201, 338.559 162.1001, 339.5573 144.0172, 340.5556 135.8902, 341.5538 151.0213, 342.5521 144.6554, 343.5504 141.1526, 344.5486 149.1409, 345.5469 144.0399, 346.5451 163.8546, 347.5434 131.4051, 348.5417 126.0485, 349.5399 179.6902, 350.5382 107.119, 351.5365 126.3688, 352.5347 184.9514, 353.533 152.3047, 354.5312 126.3945, 355.5295 156.4972, 356.5278 132.8179, 357.526 152.2964, 358.5243 203.8126, 359.5226 159.2096, 360.5208 139.7208, 361.5191 130.9038, 362.5174 154.3951, 363.5156 155.2433, 364.5139 138.3409, 365.5121 142.1379, 366.5104 137.5515, 367.5087 130.8865, 368.5069 171.4446, 369.5052 188.1423, 370.5035 156.7286, 371.5017 130.4336, 372.5 144.102, 373.4983 145.6677, 374.4965 131.9537, 375.4948 193.5524, 376.493 112.4927, 377.4913 143.4407, 378.4896 167.3479, 379.4879 158.0786, 380.4861 120.8056, 381.4844 123.9523, 382.4826 139.5066, 383.4809 136.7695, 384.4792 162.3212, 385.4774 141.9768, 386.4757 141.6511, 387.474 177.9303, 388.4722 119.8212, 389.4705 124.3307, 390.4688 117.6485, 391.467 172.0804, 392.4653 139.7529, 393.4635 142.3345, 394.4618 139.286, 395.4601 167.7128, 396.4583 141.9958, 397.4566 149.2869, 398.4549 174.3692, 399.4531 166.9793, 400.4514 150.0985, 401.4496 149.4838, 402.4479 148.7992, 403.4462 171.8857, 404.4445 175.5756, 405.4427 119.9088, 406.441 134.7273, 407.4392 152.3839, 408.4375 143.3873, 409.4358 178.3519, 410.434 157.2318, 411.4323 162.8388, 412.4305 145.6701, 413.4288 150.5054, 414.4271 149.0552, 415.4254 146.6463, 416.4236 154.8655, 417.4219 161.3412, 418.4201 140.8444, 419.4184 180.6596, 420.4167 122.4188, 421.4149 135.9542, 422.4132 156.8761, 423.4115 140.9245, 424.4097 164.4781, 425.408 180.672, 426.4062 158.1485, 427.4045 160.5108, 428.4028 123.1764, 429.401 131.9828, 430.3993 145.6463, 431.3976 146.607, 432.3958 132.6299, 433.3941 158.1259, 434.3924 148.4835, 435.3906 159.4066, 436.3889 161.2945, 437.3871 140.2083, 438.3854 142.191, 439.3837 142.5091, 440.382 115.001, 441.3802 149.541, 442.3785 139.4453, 443.3767 144.0667, 444.375 146.2136, 445.3733 137.0563, 446.3715 134.4173, 447.3698 149.2581, 448.368 161.6459, 449.3663 132.4574, 450.3646 177.2738, 451.3629 143.9464, 452.3611 125.3315, 453.3594 185.1241, 454.3576 118.3414, 455.3559 146.9678, 456.3542 148.3081, 457.3524 133.4249, 458.3507 158.3341, 459.349 148.2177, 460.3472 169.7327, 461.3455 148.7559, 462.3438 153.9969, 463.342 133.8782, 464.3403 164.0539, 465.3385 118.8558, 466.3368 120.0895, 467.3351 155.7186, 468.3333 155.9693, 469.3316 153.8377, 470.3299 120.8115, 471.3281 135.9623, 472.3264 146.7757, 473.3246 150.344, 474.3229 160.849, 475.3212 128.8167, 476.3195 125.3834, 477.3177 131.0298, 478.316 172.8543, 479.3142 189.5719, 480.3125 143.0885, 481.3108 117.4014, 482.309 142.2417, 483.3073 123.719, 484.3055 190.3278, 485.3038 162.4388, 486.3021 166.0526, 487.3004 137.2112, 488.2986 120.9197, 489.2969 156.6833, 490.2951 137.1639, 491.2934 150.5162, 492.2917 129.5356, 493.2899 153.002, 494.2882 146.0001, 495.2865 131.2929, 496.2847 149.7253, 497.283 141.2468, 498.2812 170.8814, 499.2795 152.0114, 500.2778 144.0823, 501.276 136.6317, 502.2743 131.2472, 503.2726 150.2462, 504.2708 130.1731, 505.2691 126.6188, 506.2674 136.6471, 507.2656 144.7938, 508.2639 171.4359, 509.2621 177.067, 510.2604 134.5161, 511.2587 164.4351, 512.257 152.3386, 513.2552 149.6129, 514.2535 129.4191, 515.2517 131.5585, 516.25 137.5434, 517.2483 130.1079, 518.2465 129.6523, 519.2448 159.0143, 520.243 163.4762, 521.2413 151.23, 522.2396 165.5502, 523.2379 150.1035, 524.2361 150.6481, 525.2344 180.708, 526.2326 132.1254, 527.2309 131.1692, 528.2292 153.7672, 529.2274 136.5601, 530.2257 130.5676, 531.224 149.4818, 532.2222 144.6977, 533.2205 143.0478, 534.2188 174.445, 535.217 181.4239, 536.2153 151.3427, 537.2135 115.2365, 538.2118 133.4072, 539.2101 156.3177, 540.2083 148.2825, 541.2066 149.6373, 542.2049 159.5521, 543.2031 133.7571, 544.2014 149.9892, 545.1996 163.5911, 546.1979 152.9745, 547.1962 153.1884, 548.1945 132.3009, 549.1927 157.2999, 550.191 168.3075, 551.1892 143.12, 552.1875 131.39, 553.1858 145.445, 554.184 139.5514, 555.1823 140.8742, 556.1805 150.1948, 557.1788 184.9327, 558.1771 134.2073, 559.1754 141.7805, 560.1736 159.7929, 561.1719 159.5356, 562.1701 164.146, 563.1684 165.1905, 564.1667 174.3861, 565.1649 134.6716, 566.1632 142.6368, 567.1615 166.3761, 568.1597 149.0847, 569.158 160.8308, 570.1562 143.6027, 571.1545 156.9294, 572.1528 159.6737, 573.151 185.1701, 574.1493 122.7623, 575.1476 189.3274, 576.1458 145.9335, 577.1441 146.2431, 578.1424 130.0124, 579.1406 122.8705, 580.1389 146.3272, 581.1371 176.9292, 582.1354 128.7825, 583.1337 153.2594, 584.132 138.9724, 585.1302 167.4376, 586.1285 182.3022, 587.1267 132.3595, 588.125 147.2076, 589.1233 118.2711, 590.1215 146.952, 591.1198 144.5208, 592.118 143.3951, 593.1163 161.0109, 594.1146 141.3072, 595.1129 138.4652, 596.1111 137.5308, 597.1094 144.5769, 598.1076 140.8757, 599.1059 134.178, 600.1042 150.0289, 601.1024 147.0131, 602.1007 130.1081, 603.099 141.2991, 604.0972 129.2746, 605.0955 156.879, 606.0938 129.7973, 607.092 167.4332, 608.0903 172.0928, 609.0885 150.5374, 610.0868 135.8481, 611.0851 111.1747, 612.0833 139.3897, 613.0816 174.3815, 614.0799 140.9038, 615.0781 133.6223, 616.0764 122.7309, 617.0746 177.3148, 618.0729 147.0622, 619.0712 135.998, 620.0695 136.4201, 621.0677 154.5248, 622.066 128.0391, 623.0642 153.7324, 624.0625 148.8427, 625.0608 162.0613, 626.059 170.7844, 627.0573 132.8492, 628.0555 147.5892, 629.0538 150.0107, 630.0521 140.4891, 631.0504 163.8238, 632.0486 125.0968, 633.0469 128.3247, 634.0451 133.9902, 635.0434 121.0397, 636.0417 165.1509, 637.0399 142.9038, 638.0382 168.8317, 639.0365 146.7695, 640.0347 157.2756, 641.033 145.0357, 642.0312 157.8332, 643.0295 122.2142, 644.0278 176.7442, 645.026 152.1813, 646.0243 121.1339, 647.0226 137.3823, 648.0208 142.7315, 649.0191 168.5014, 650.0174 165.2953, 651.0156 124.4675, 652.0139 178.8011, 653.0121 131.9753, 654.0104 199.0027, 655.0087 150.658, 656.007 120.8441, 657.0052 171.7208, 658.0035 145.4965, 659.0017 128.4367" style="stroke: rgb(97%,45%,8%); stroke-linecap: round; stroke-width: 1.2; fill: None; fill-rule: evenodd;"/>
					<polyline points="85.99826 135.8665, 86.99653 149.3275, 87.99479 147.1648, 88.99306 146.7063, 89.99132 142.4236, 90.98958 143.2857, 91.98785 139.3919, 92.98611 141.1844, 93.98438 145.3452, 94.98264 154.2031, 95.9809 156.2646, 96.97917 139.8123, 97.97743 150.1607, 98.97569 150.9204, 99.97396 140.7059, 100.9722 148.9546, 101.9705 152.862, 102.9688 151.1716, 103.967 156.9493, 104.9653 143.5347, 105.9635 151.1552, 106.9618 146.698, 107.9601 140.0949, 108.9583 147.5339, 109.9566 153.2488, 110.9549 155.5658, 111.9531 141.7848, 112.9514 142.4767, 113.9497 139.4866, 114.9479 157.1704, 115.9462 141.2563, 116.9444 136.4744, 117.9427 145.6857, 118.941 142.2315, 119.9392 149.5641, 120.9375 140.675, 121.9358 134.9704, 122.934 143.1243, 123.9323 144.2442, 124.9306 133.8562, 125.9288 144.5891, 126.9271 140.7597, 127.9253 149.0667, 128.9236 138.5581, 129.9219 153.6305, 130.9201 144.5094, 131.9184 139.9838, 132.9167 147.6006, 133.9149 147.9015, 134.9132 138.4483, 135.9115 150.6856, 136.9097 142.1489, 137.908 134.6921, 138.9062 148.4313, 139.9045 147.9454, 140.9028 147.1992, 141.901 153.5247, 142.8993 148.5084, 143.8976 149.3322, 144.8958 150.5743, 145.8941 146.5848, 146.8924 146.4824, 147.8906 148.0817, 148.8889 153.5146, 149.8872 148.1327, 150.8854 142.4084, 151.8837 142.9944, 152.8819 149.6754, 153.8802 145.1283, 154.8785 149.8841, 155.8767 146.0571, 156.875 149.376, 157.8733 148.7222, 158.8715 161.507, 159.8698 139.3062, 160.8681 146.7442, 161.8663 148.2633, 162.8646 143.344, 163.8628 148.9537, 164.8611 153.1415, 165.8594 142.879, 166.8576 139.9938, 167.8559 149.1354, 168.8542 145.1254, 169.8524 142.7059, 170.8507 151.3908, 171.849 144.7307, 172.8472 142.1209, 173.8455 139.2074, 174.8438 146.3754, 175.842 154.7113, 176.8403 145.4742, 177.8385 144.0507, 178.8368 152.9126, 179.8351 147.5979, 180.8333 145.088, 181.8316 147.2168, 182.8299 142.7813, 183.8281 137.5964, 184.8264 139.9831, 185.8247 152.0818, 186.8229 148.8423, 187.8212 149.7013, 188.8194 147.2352, 189.8177 145.5172, 190.816 140.0372, 191.8142 151.4665, 192.8125 154.9695, 193.8108 138.6386, 194.809 151.6901, 195.8073 145.1955, 196.8056 143.1809, 197.8038 143.129, 198.8021 156.5207, 199.8003 150.1825, 200.7986 139.7234, 201.7969 150.0841, 202.7951 148.0177, 203.7934 140.2354, 204.7917 143.2992, 205.7899 149.3199, 206.7882 145.2842, 207.7865 151.6999, 208.7847 151.2994, 209.783 146.8044, 210.7812 143.8496, 211.7795 142.7254, 212.7778 136.5819, 213.776 149.923, 214.7743 142.4619, 215.7726 146.4665, 216.7708 148.2453, 217.7691 143.544, 218.7674 143.9188, 219.7656 151.6296, 220.7639 145.4908, 221.7622 144.3625, 222.7604 150.4026, 223.7587 140.7796, 224.7569 148.7128, 225.7552 147.81, 226.7535 144.353, 227.7517 150.6573, 228.75 146.8459, 229.7483 150.8861, 230.7465 143.8366, 231.7448 146.5797, 232.7431 145.6176, 233.7413 144.2462, 234.7396 138.6047, 235.7379 138.136, 236.7361 139.618, 237.7344 148.5938, 238.7326 141.2108, 239.7309 140.6063, 240.7292 140.0238, 241.7274 146.9001, 242.7257 141.6065, 243.724 145.5034, 244.7222 149.2029, 245.7205 154.4941, 246.7188 155.1316, 247.717 148.7399, 248.7153 147.5105, 249.7135 138.6221, 250.7118 146.7136, 251.7101 151.9096, 252.7083 143.2539, 253.7066 143.3609, 254.7049 144.1723, 255.7031 147.058, 256.7014 145.5064, 257.6996 140.5589, 258.6979 155.2938, 259.6962 144.5338, 260.6944 143.9093, 261.6927 148.4923, 262.691 147.6006, 263.6892 147.5117, 264.6875 150.5307, 265.6858 141.5795, 266.684 143.186, 267.6823 151.0625, 268.6806 150.5254, 269.6788 155.2989, 270.6771 144.0267, 271.6754 155.3009, 272.6736 154.4603, 273.6719 146.4566, 274.6701 150.0825, 275.6684 148.8227, 276.6667 149.3164, 277.6649 145.1934, 278.6632 146.0547, 279.6615 145.4576, 280.6597 147.8971, 281.658 151.815, 282.6562 151.4061, 283.6545 139.2872, 284.6528 152.569, 285.651 145.971, 286.6493 146.3588, 287.6476 141.5093, 288.6458 146.1687, 289.6441 141.1821, 290.6424 151.9078, 291.6406 145.9155, 292.6389 147.745, 293.6371 153.6087, 294.6354 145.6026, 295.6337 151.369, 296.6319 152.7651, 297.6302 139.4208, 298.6285 150.6174, 299.6267 133.4763, 300.625 146.9206, 301.6233 146.4347, 302.6215 155.2369, 303.6198 137.0584, 304.6181 144.8255, 305.6163 147.201, 306.6146 147.4299, 307.6129 148.9371, 308.6111 150.0487, 309.6094 142.3162, 310.6076 150.0033, 311.6059 143.4001, 312.6042 147.9874, 313.6024 142.548, 314.6007 144.3576, 315.599 152.2172, 316.5972 145.984, 317.5955 151.3605, 318.5938 151.0445, 319.592 142.9616, 320.5903 152.9886, 321.5885 148.5476, 322.5868 153.7031, 323.5851 144.9181, 324.5833 144.9115, 325.5816 145.7003, 326.5799 139.2509, 327.5781 143.125, 328.5764 144.2891, 329.5746 142.8712, 330.5729 156.0828, 331.5712 156.7852, 332.5694 144.7069, 333.5677 142.5732, 334.566 136.6248, 335.5642 140.9311, 336.5625 152.7743, 337.5608 150.8137, 338.559 144.194, 339.5573 146.25, 340.5556 147.2242, 341.5538 144.441, 342.5521 139.8294, 343.5504 149.5969, 344.5486 136.3721, 345.5469 139.5083, 346.5451 144.9812, 347.5434 147.18, 348.5417 141.5064, 349.5399 153.0164, 350.5382 143.9087, 351.5365 145.5638, 352.5347 157.8841, 353.533 144.4599, 354.5312 140.0934, 355.5295 144.438, 356.5278 151.3217, 357.526 150.7022, 358.5243 145.949, 359.5226 150.671, 360.5208 140.878, 361.5191 152.777, 362.5174 146.8284, 363.5156 142.0972, 364.5139 141.8876, 365.5121 145.4736, 366.5104 154.7588, 367.5087 146.0291, 368.5069 135.7, 369.5052 141.8153, 370.5035 145.4197, 371.5017 148.7738, 372.5 145.7884, 373.4983 144.6347, 374.4965 146.915, 375.4948 139.813, 376.493 151.1382, 377.4913 136.4457, 378.4896 142.2837, 379.4879 143.8622, 380.4861 146.9218, 381.4844 141.6485, 382.4826 156.7579, 383.4809 139.5, 384.4792 148.3948, 385.4774 150.2686, 386.4757 149.2088, 387.474 147.6111, 388.4722 150.1344, 389.4705 143.7989, 390.4688 153.6941, 391.467 144.3353, 392.4653 147.5433, 393.4635 156.6056, 394.4618 143.4671, 395.4601 147.1718, 396.4583 146.2439, 397.4566 133.4423, 398.4549 149.3, 399.4531 145.6057, 400.4514 149.7898, 401.4496 137.2938, 402.4479 137.6607, 403.4462 134.6018, 404.4445 142.4597, 405.4427 141.7252, 406.441 141.3792, 407.4392 152.0542, 408.4375 143.0204, 409.4358 148.222, 410.434 145.8143, 411.4323 146.8868, 412.4305 150.9466, 413.4288 147.1969, 414.4271 151.3571, 415.4254 136.8057, 416.4236 138.7344, 417.4219 141.3178, 418.4201 146.3921, 419.4184 142.1467, 420.4167 144.2237, 421.4149 149.0323, 422.4132 141.8652, 423.4115 147.9502, 424.4097 152.2599, 425.408 143.5695, 426.4062 144.8989, 427.4045 154.6983, 428.4028 137.007, 429.401 138.5079, 430.3993 149.7181, 431.3976 152.515, 432.3958 137.2658, 433.3941 141.7462, 434.3924 140.901, 435.3906 145.6319, 436.3889 151.6599, 437.3871 144.6275, 438.3854 147.2007, 439.3837 145.4182, 440.382 148.3892, 441.3802 140.139, 442.3785 136.4973, 443.3767 142.1642, 444.375 140.4424, 445.3733 138.2571, 446.3715 145.8531, 447.3698 145.2824, 448.368 160.736, 449.3663 155.3982, 450.3646 144.5758, 451.3629 143.1524, 452.3611 147.4951, 453.3594 143.9317, 454.3576 151.3532, 455.3559 148.6128, 456.3542 146.6508, 457.3524 140.0876, 458.3507 151.0984, 459.349 143.7856, 460.3472 142.8179, 461.3455 142.7182, 462.3438 137.37, 463.342 153.6959, 464.3403 144.7118, 465.3385 149.4365, 466.3368 138.4287, 467.3351 153.1703, 468.3333 148.215, 469.3316 147.9408, 470.3299 148.7438, 471.3281 147.1812, 472.3264 135.462, 473.3246 148.5789, 474.3229 150.9234, 475.3212 144.0474, 476.3195 140.4745, 477.3177 143.5336, 478.316 140.4826, 479.3142 143.6498, 480.3125 153.9494, 481.3108 146.5331, 482.309 147.2232, 483.3073 150.1789, 484.3055 151.8888, 485.3038 151.9605, 486.3021 136.2252, 487.3004 147.1614, 488.2986 145.6978, 489.2969 141.8596, 490.2951 140.3174, 491.2934 146.0141, 492.2917 150.989, 493.2899 150.601, 494.2882 135.9072, 495.2865 149.3087, 496.2847 144.9355, 497.283 146.4917, 498.2812 140.4184, 499.2795 135.011, 500.2778 159.5295, 501.276 145.7118, 502.2743 143.2094, 503.2726 138.6977, 504.2708 141.1313, 505.2691 149.2803, 506.2674 151.6403, 507.2656 144.9295, 508.2639 144.3059, 509.2621 146.3092, 510.2604 156.2016, 511.2587 146.173, 512.257 142.0029, 513.2552 142.9079, 514.2535 143.3903, 515.2517 149.2004, 516.25 143.3061, 517.2483 145.9348, 518.2465 153.614, 519.2448 141.1791, 520.243 152.5433, 521.2413 152.5942, 522.2396 149.5621, 523.2379 142.4459, 524.2361 142.35, 525.2344 144.8946, 526.2326 149.7616, 527.2309 144.5874, 528.2292 151.2875, 529.2274 151.3868, 530.2257 147.0275, 531.224 153.1294, 532.2222 145.0719, 533.2205 145.9813, 534.2188 142.1664, 535.217 144.3497, 536.2153 151.5544, 537.2135 146.4745, 538.2118 150.3057, 539.2101 133.4065, 540.2083 145.7665, 541.2066 149.4085, 542.2049 155.9421, 543.2031 142.9442, 544.2014 141.5436, 545.1996 145.7586, 546.1979 148.2681, 547.1962 150.5605, 548.1945 143.625, 549.1927 152.019, 550.191 146.2047, 551.1892 148.5001, 552.1875 155.955, 553.1858 144.2622, 554.184 154.3471, 555.1823 148.0862, 556.1805 139.9903, 557.1788 152.1489, 558.1771 153.0722, 559.1754 150.5556, 560.1736 145.0188, 561.1719 149.9908, 562.1701 146.7387, 563.1684 145.9162, 564.1667 148.044, 565.1649 141.0974, 566.1632 149.2899, 567.1615 146.7613, 568.1597 153.4998, 569.158 148.637, 570.1562 148.299, 571.1545 142.0374, 572.1528 143.2934, 573.151 145.9221, 574.1493 136.3319, 575.1476 151.2864, 576.1458 133.7964, 577.1441 140.6817, 578.1424 146.1142, 579.1406 145.7925, 580.1389 146.7241, 581.1371 151.9697, 582.1354 150.6132, 583.1337 147.9976, 584.132 146.2394, 585.1302 143.2359, 586.1285 144.902, 587.1267 147.6616, 588.125 145.2509, 589.1233 153.9574, 590.1215 141.1998, 591.1198 142.428, 592.118 145.771, 593.1163 146.0753, 594.1146 146.221, 595.1129 135.4591, 596.1111 136.0912, 597.1094 148.3288, 598.1076 139.2798, 599.1059 141.4807, 600.1042 148.8216, 601.1024 145.7984, 602.1007 146.3233, 603.099 144.608, 604.0972 155.1415, 605.0955 151.0675, 606.0938 146.1014, 607.092 157.6269, 608.0903 153.0642, 609.0885 149.9458, 610.0868 152.1502, 611.0851 149.7028, 612.0833 147.5514, 613.0816 148.5023, 614.0799 148.3576, 615.0781 157.3386, 616.0764 139.8484, 617.0746 153.0185, 618.0729 153.2312, 619.0712 142.919, 620.0695 149.8788, 621.0677 150.1863, 622.066 154.4149, 623.0642 143.2776, 624.0625 147.9377, 625.0608 153.8027, 626.059 151.4522, 627.0573 140.8899, 628.0555 148.3701, 629.0538 147.4676, 630.0521 140.7766, 631.0504 146.3186, 632.0486 147.8231, 633.0469 141.9246, 634.0451 146.7902, 635.0434 146.8325, 636.0417 146.1112, 637.0399 154.1471, 638.0382 153.6692, 639.0365 144.1266, 640.0347 137.6096, 641.033 146.9479, 642.0312 142.7122, 643.0295 134.6458, 644.0278 144.6766, 645.026 144.3972, 646.0243 150.4717, 647.0226 143.8543, 648.0208 149.3485, 649.0191 151.3448, 650.0174 143.978, 651.0156 137.9916, 652.0139 147.6646, 653.0121 149.6499, 654.0104 148.5087, 655.0087 148.1459, 656.007 146.8584, 657.0052 153.2583, 658.0035 146.9639, 659.0017 143.0147" style="stroke: rgb(65%,33%,96%); stroke-linecap: round; stroke-width: 1.2; fill: None; fill-rule: evenodd;"/>
				</g>
			</g>
			<text x="328.4835" y="273.0" style="font-family: Helvetica-Bold; font-size: 11px;fill: rgb(0%,0%,0%); stroke:none;" transform="translate(0,546) scale(1,-1)">X-axis frequency</text>
			<text x="321.2315" y="80.0" style="font-family: Helvetica; font-size: 9px;fill: rgb(0%,0%,0%); stroke:none;" transform="translate(0,160) scale(1,-1)">cycles per weight position</text>
			<g transform="">
				<g transform="">
					<g transform="">
						<path d="M 740,110 L 1315,110 Z" style="stroke: rgb(0%,0%,0%); stroke-linecap: butt; stroke-width: 1;"/>
					</g>
					<g transform="">
						<path d="M 740,110 L 740,105 Z" style="stroke: rgb(0%,0%,0%); stroke-linecap: butt; stroke-width: 1;"/>
						<path d="M 883.75,110 L 883.75,105 Z" style="stroke: rgb(0%,0%,0%); stroke-linecap: butt; stroke-width: 1;"/>
						<path d="M 1027.5,110 L 1027.5,105 Z" style="stroke: rgb(0%,0%,0%); stroke-linecap: butt; stroke-width: 1;"/>
						<path d="M 1171.25,110 L 1171.25,105 Z" style="stroke: rgb(0%,0%,0%); stroke-linecap: butt; stroke-width: 1;"/>
						<path d="M 1315,110 L 1315,105 Z" style="stroke: rgb(0%,0%,0%); stroke-linecap: butt; stroke-width: 1;"/>
					</g>
					<g transform="">
						<g transform=" matrix(1,0,0,1,740,105)">
							<text x="-11.25" y="-10.0" style="font-family: Times-Roman; font-size: 10px;fill: rgb(0%,0%,0%); stroke:none;" transform="translate(0,-20) scale(1,-1)">0.000</text>
						</g>
						<g transform=" matrix(1,0,0,1,883.75,105)">
							<text x="-11.25" y="-10.0" style="font-family: Times-Roman; font-size: 10px;fill: rgb(0%,0%,0%); stroke:none;" transform="translate(0,-20) scale(1,-1)">0.125</text>
						</g>
						<g transform=" matrix(1,0,0,1,1027.5,105)">
							<text x="-11.25" y="-10.0" style="font-family: Times-Roman; font-size: 10px;fill: rgb(0%,0%,0%); stroke:none;" transform="translate(0,-20) scale(1,-1)">0.250</text>
						</g>
						<g transform=" matrix(1,0,0,1,1171.25,105)">
							<text x="-11.25" y="-10.0" style="font-family: Times-Roman; font-size: 10px;fill: rgb(0%,0%,0%); stroke:none;" transform="translate(0,-20) scale(1,-1)">0.375</text>
						</g>
						<g transform=" matrix(1,0,0,1,1315,105)">
							<text x="-11.25" y="-10.0" style="font-family: Times-Roman; font-size: 10px;fill: rgb(0%,0%,0%); stroke:none;" transform="translate(0,-20) scale(1,-1)">0.500</text>
						</g>
					</g>
				</g>
				<g transform="">
					<g transform="">
						<path d="M 740,110 L 740,255 Z" style="stroke: rgb(0%,0%,0%); stroke-linecap: butt; stroke-width: 1;"/>
					</g>
					<g transform="">
						<path d="M 740,110 L 735,110 Z" style="stroke: rgb(0%,0%,0%); stroke-linecap: butt; stroke-width: 1;"/>
						<path d="M 740,146.25 L 735,146.25 Z" style="stroke: rgb(0%,0%,0%); stroke-linecap: butt; stroke-width: 1;"/>
						<path d="M 740,182.5 L 735,182.5 Z" style="stroke: rgb(0%,0%,0%); stroke-linecap: butt; stroke-width: 1;"/>
						<path d="M 740,218.75 L 735,218.75 Z" style="stroke: rgb(0%,0%,0%); stroke-linecap: butt; stroke-width: 1;"/>
						<path d="M 740,255 L 735,255 Z" style="stroke: rgb(0%,0%,0%); stroke-linecap: butt; stroke-width: 1;"/>
					</g>
					<g transform="">
						<g transform=" matrix(1,0,0,1,735,110)">
							<text x="-15.83" y="-4.0" style="font-family: Times-Roman; font-size: 10px;fill: rgb(0%,0%,0%); stroke:none;" transform="translate(0,-8) scale(1,-1)">-1.0</text>
						</g>
						<g transform=" matrix(1,0,0,1,735,146.25)">
							<text x="-12.5" y="-4.0" style="font-family: Times-Roman; font-size: 10px;fill: rgb(0%,0%,0%); stroke:none;" transform="translate(0,-8) scale(1,-1)">0.0</text>
						</g>
						<g transform=" matrix(1,0,0,1,735,182.5)">
							<text x="-12.5" y="-4.0" style="font-family: Times-Roman; font-size: 10px;fill: rgb(0%,0%,0%); stroke:none;" transform="translate(0,-8) scale(1,-1)">1.0</text>
						</g>
						<g transform=" matrix(1,0,0,1,735,218.75)">
							<text x="-12.5" y="-4.0" style="font-family: Times-Roman; font-size: 10px;fill: rgb(0%,0%,0%); stroke:none;" transform="translate(0,-8) scale(1,-1)">2.0</text>
						</g>
						<g transform=" matrix(1,0,0,1,735,255)">
							<text x="-12.5" y="-4.0" style="font-family: Times-Roman; font-size: 10px;fill: rgb(0%,0%,0%); stroke:none;" transform="translate(0,-8) scale(1,-1)">3.0</text>
						</g>
					</g>
				</g>
				<g transform="">
					<polyline points="741.123 150.2158, 742.2461 153.6112, 743.3691 147.3636, 744.4922 203.5914, 745.6152 145.5109, 746.7383 166.1395, 747.8613 147.6574, 748.9844 171.9237, 750.1074 128.1857, 751.2305 146.5261, 752.3535 138.2134, 753.4766 172.6916, 754.5996 141.0371, 755.7227 135.414, 756.8457 146.0547, 757.9688 143.9165, 759.0918 130.3299, 760.2148 132.2605, 761.3379 129.0071, 762.4609 171.7174, 763.584 134.4249, 764.707 146.5343, 765.8301 146.8117, 766.9531 154.2271, 768.0762 121.7577, 769.1992 135.1144, 770.3223 145.7968, 771.4453 164.8982, 772.5684 149.352, 773.6914 142.4045, 774.8145 154.8007, 775.9375 168.7386, 777.0605 137.7796, 778.1836 155.5084, 779.3066 130.3126, 780.4297 155.7151, 781.5527 158.1111, 782.6758 143.6603, 783.7988 166.9572, 784.9219 160.9893, 786.0449 148.3611, 787.168 144.0602, 788.291 137.4777, 789.4141 174.8214, 790.5371 136.8336, 791.6602 140.3402, 792.7832 155.3428, 793.9062 194.6421, 795.0293 130.8678, 796.1523 159.2891, 797.2754 156.3828, 798.3984 219.6213, 799.5215 149.3894, 800.6445 162.0756, 801.7676 147.6073, 802.8906 165.6291, 804.0137 126.6709, 805.1367 124.0091, 806.2598 120.0534, 807.3828 202.1474, 808.5059 137.4981, 809.6289 161.5538, 810.752 154.5664, 811.875 157.1076, 812.998 123.3467, 814.1211 144.5592, 815.2441 136.5813, 816.3672 153.0874, 817.4902 135.0932, 818.6133 131.6585, 819.7363 140.2099, 820.8594 137.3544, 821.9824 143.0648, 823.1055 140.8437, 824.2285 119.1517, 825.3516 162.3246, 826.4746 134.281, 827.5977 140.2738, 828.7207 140.5566, 829.8438 147.1986, 830.9668 117.2709, 832.0898 132.0934, 833.2129 132.5171, 834.3359 155.0955, 835.459 128.4581, 836.582 144.975, 837.7051 140.206, 838.8281 145.1697, 839.9512 117.8997, 841.0742 155.758, 842.1973 139.7404, 843.3203 166.0385, 844.4434 150.2358, 845.5664 140.0699, 846.6895 140.5545, 847.8125 140.8558, 848.9355 128.5355, 850.0586 153.0272, 851.1816 139.4293, 852.3047 177.4371, 853.4277 143.3967, 854.5508 140.2838, 855.6738 136.0406, 856.7969 163.1987, 857.9199 131.0449, 859.043 142.9067, 860.166 120.7391, 861.2891 164.4236, 862.4121 159.2999, 863.5352 128.5698, 864.6582 146.2929, 865.7812 172.9427, 866.9043 128.6311, 868.0273 153.5592, 869.1504 141.373, 870.2734 152.9182, 871.3965 134.6342, 872.5195 141.0809, 873.6426 135.6524, 874.7656 144.1145, 875.8887 120.4234, 877.0117 146.6892, 878.1348 128.4791, 879.2578 160.4936, 880.3809 132.6675, 881.5039 136.4227, 882.627 122.2691, 883.75 152.0826, 884.873 136.6468, 885.9961 140.2519, 887.1191 131.4057, 888.2422 215.5654, 889.3652 135.6719, 890.4883 155.0083, 891.6113 145.6227, 892.7344 144.4174, 893.8574 146.25, 894.9805 131.521, 896.1035 151.5788, 897.2266 220.0823, 898.3496 175.2181, 899.4727 183.1787, 900.5957 166.0657, 901.7188 147.5795, 902.8418 124.566, 903.9648 138.7716, 905.0879 143.7443, 906.2109 183.4706, 907.334 148.236, 908.457 141.3389, 909.5801 137.512, 910.7031 154.0896, 911.8262 146.1319, 912.9492 142.7255, 914.0723 124.9881, 915.1953 147.5909, 916.3184 125.8668, 917.4414 140.1887, 918.5645 120.971, 919.6875 152.0775, 920.8105 137.9662, 921.9336 133.9602, 923.0566 117.875, 924.1797 173.5309, 925.3027 122.7206, 926.4258 130.137, 927.5488 131.8026, 928.6719 149.0643, 929.7949 154.0208, 930.918 149.8886, 932.041 147.6725, 933.1641 157.8382, 934.2871 131.6167, 935.4102 133.0615, 936.5332 133.1264, 937.6562 159.3022, 938.7793 131.6676, 939.9023 158.2145, 941.0254 135.0619, 942.1484 178.4469, 943.2715 151.6349, 944.3945 138.3336, 945.5176 124.6247, 946.6406 144.1554, 947.7637 109.4812, 948.8867 133.5074, 950.0098 124.5647, 951.1328 161.0272, 952.2559 138.787, 953.3789 164.1415, 954.502 136.4858, 955.625 175.0759, 956.748 132.2987, 957.8711 138.6704, 958.9941 142.3387, 960.1172 171.8759, 961.2402 141.2787, 962.3633 136.9563, 963.4863 140.9022, 964.6094 165.9398, 965.7324 126.8574, 966.8555 147.915, 967.9785 130.5797, 969.1016 160.794, 970.2246 147.4777, 971.3477 138.6164, 972.4707 155.4111, 973.5938 146.0698, 974.7168 136.0926, 975.8398 175.4428, 976.9629 124.3483, 978.0859 178.3733, 979.209 145.6355, 980.332 146.1923, 981.4551 125.9389, 982.5781 159.9347, 983.7012 133.0147, 984.8242 162.7553, 985.9473 135.1889, 987.0703 181.2258, 988.1934 137.2264, 989.3164 148.9909, 990.4395 126.1508, 991.5625 147.22, 992.6855 131.0378, 993.8086 179.5176, 994.9316 150.4419, 996.0547 192.5895, 997.1777 156.4988, 998.3008 170.1982, 999.4238 165.0118, 1000.547 164.605, 1001.67 138.4196, 1002.793 144.5448, 1003.916 147.7943, 1005.039 157.5972, 1006.162 143.5276, 1007.285 156.89, 1008.408 155.0595, 1009.531 150.0018, 1010.654 144.2344, 1011.777 149.1774, 1012.9 121.8184, 1014.023 159.0806, 1015.146 140.4661, 1016.27 136.0013, 1017.393 135.5184, 1018.516 155.7878, 1019.639 134.7326, 1020.762 139.3397, 1021.885 139.3424, 1023.008 146.7948, 1024.131 136.7055, 1025.254 132.9383, 1026.377 139.3624, 1027.5 158.2526, 1028.623 151.0496, 1029.746 141.7633, 1030.869 149.3422, 1031.992 154.5117, 1033.115 158.1229, 1034.238 142.7444, 1035.361 136.266, 1036.484 147.5227, 1037.607 136.7154, 1038.73 128.2878, 1039.854 160.8187, 1040.977 153.5489, 1042.1 145.692, 1043.223 154.2279, 1044.346 150.7239, 1045.469 162.9564, 1046.592 165.7864, 1047.715 156.7712, 1048.838 148.9701, 1049.961 192.5043, 1051.084 128.4617, 1052.207 141.7491, 1053.33 138.2614, 1054.453 192.8033, 1055.576 155.367, 1056.699 162.9712, 1057.822 152.0478, 1058.945 185.5291, 1060.068 133.5954, 1061.191 164.5277, 1062.314 156.4598, 1063.438 150.6842, 1064.561 166.4531, 1065.684 164.5269, 1066.807 138.0429, 1067.93 180.2272, 1069.053 132.5019, 1070.176 136.3285, 1071.299 125.5191, 1072.422 152.295, 1073.545 144.362, 1074.668 147.398, 1075.791 136.808, 1076.914 145.2546, 1078.037 140.7346, 1079.16 129.8665, 1080.283 119.0273, 1081.406 179.4948, 1082.529 135.485, 1083.652 135.9323, 1084.775 120.283, 1085.898 166.4682, 1087.021 133.233, 1088.145 158.1775, 1089.268 147.4057, 1090.391 171.1273, 1091.514 142.9075, 1092.637 136.9942, 1093.76 129.2801, 1094.883 159.767, 1096.006 155.225, 1097.129 156.9925, 1098.252 158.2828, 1099.375 159.3632, 1100.498 148.02, 1101.621 143.5989, 1102.744 132.2533, 1103.867 170.728, 1104.99 154.8474, 1106.113 149.762, 1107.236 154.6684, 1108.359 166.0898, 1109.482 187.0676, 1110.605 164.6564, 1111.729 167.1897, 1112.852 219.0191, 1113.975 151.311, 1115.098 151.7288, 1116.221 131.2156, 1117.344 160.66, 1118.467 147.6909, 1119.59 152.0379, 1120.713 145.0151, 1121.836 169.7819, 1122.959 130.9377, 1124.082 160.6276, 1125.205 134.5624, 1126.328 150.4188, 1127.451 158.7397, 1128.574 157.9104, 1129.697 150.25, 1130.82 162.8391, 1131.943 140.1673, 1133.066 151.9353, 1134.189 165.6053, 1135.312 154.1198, 1136.436 133.387, 1137.559 118.9892, 1138.682 133.1364, 1139.805 143.8097, 1140.928 140.228, 1142.051 147.2002, 1143.174 148.9496, 1144.297 151.639, 1145.42 154.7583, 1146.543 161.542, 1147.666 121.7331, 1148.789 158.9423, 1149.912 133.3618, 1151.035 142.8871, 1152.158 130.0919, 1153.281 157.4002, 1154.404 138.8465, 1155.527 159.6773, 1156.65 139.0468, 1157.773 157.797, 1158.896 155.9119, 1160.02 143.3032, 1161.143 158.6104, 1162.266 174.4637, 1163.389 160.7566, 1164.512 166.6294, 1165.635 142.3037, 1166.758 179.1883, 1167.881 143.0252, 1169.004 151.5705, 1170.127 153.9362, 1171.25 173.64, 1172.373 150.6524, 1173.496 169.7768, 1174.619 174.8335, 1175.742 154.4063, 1176.865 132.1498, 1177.988 189.0456, 1179.111 144.5817, 1180.234 175.7168, 1181.357 141.4558, 1182.48 135.7233, 1183.604 133.2251, 1184.727 165.3631, 1185.85 136.1455, 1186.973 172.8786, 1188.096 129.6758, 1189.219 172.681, 1190.342 133.2195, 1191.465 141.447, 1192.588 128.9787, 1193.711 169.899, 1194.834 152.3963, 1195.957 151.5622, 1197.08 134.4784, 1198.203 168.8045, 1199.326 145.361, 1200.449 144.5437, 1201.572 130.1069, 1202.695 153.0596, 1203.818 118.6884, 1204.941 124.7292, 1206.064 122.9997, 1207.188 161.6386, 1208.311 139.0885, 1209.434 150.3858, 1210.557 144.6486, 1211.68 171.2859, 1212.803 132.0365, 1213.926 155.7829, 1215.049 143.4874, 1216.172 157.4818, 1217.295 159.1815, 1218.418 152.1883, 1219.541 174.9736, 1220.664 186.8792, 1221.787 133.8058, 1222.91 137.7688, 1224.033 134.5779, 1225.156 164.6703, 1226.279 164.7998, 1227.402 139.4202, 1228.525 139.9332, 1229.648 157.7127, 1230.771 137.6635, 1231.895 146.8639, 1233.018 133.602, 1234.141 145.0413, 1235.264 141.1314, 1236.387 148.8174, 1237.51 128.3535, 1238.633 130.4039, 1239.756 126.4177, 1240.879 131.4218, 1242.002 123.2824, 1243.125 169.8407, 1244.248 139.4187, 1245.371 184.6332, 1246.494 142.1309, 1247.617 202.1748, 1248.74 124.4457, 1249.863 119.4754, 1250.986 140.4006, 1252.109 184.4351, 1253.232 157.0325, 1254.355 185.1505, 1255.479 182.0606, 1256.602 174.5017, 1257.725 138.69, 1258.848 133.2108, 1259.971 153.2107, 1261.094 165.3114, 1262.217 167.3391, 1263.34 167.9207, 1264.463 171.9976, 1265.586 192.8281, 1266.709 150.5077, 1267.832 150.1438, 1268.955 143.6539, 1270.078 166.3466, 1271.201 169.7388, 1272.324 167.115, 1273.447 147.5253, 1274.57 155.1611, 1275.693 130.9411, 1276.816 157.0054, 1277.939 129.698, 1279.062 171.9836, 1280.186 144.9485, 1281.309 142.0253, 1282.432 135.0388, 1283.555 141.5562, 1284.678 127.4246, 1285.801 156.3192, 1286.924 173.3408, 1288.047 186.701, 1289.17 129.5788, 1290.293 128.8887, 1291.416 122.8497, 1292.539 144.1596, 1293.662 130.0664, 1294.785 148.2011, 1295.908 166.1061, 1297.031 152.9818, 1298.154 142.9312, 1299.277 148.5188, 1300.4 138.4847, 1301.523 163.3359, 1302.646 153.5377, 1303.77 136.7564, 1304.893 143.5519, 1306.016 151.7011, 1307.139 135.0661, 1308.262 149.7404, 1309.385 130.9836, 1310.508 194.9706, 1311.631 135.0383, 1312.754 139.4921, 1313.877 124.8449" style="stroke: rgb(14%,38%,92%); stroke-linecap: round; stroke-width: 1.2; fill: None; fill-rule: evenodd;"/>
					<polyline points="741.123 145.3402, 742.2461 152.0525, 743.3691 148.5416, 744.4922 209.8564, 745.6152 146.4024, 746.7383 159.1491, 747.8613 142.2603, 748.9844 176.2357, 750.1074 130.1492, 751.2305 143.7593, 752.3535 135.9255, 753.4766 173.1224, 754.5996 139.8646, 755.7227 128.8645, 756.8457 139.6238, 757.9688 145.8029, 759.0918 121.8556, 760.2148 126.9059, 761.3379 119.033, 762.4609 165.2286, 763.584 136.1156, 764.707 147.3438, 765.8301 155.4098, 766.9531 151.9877, 768.0762 117.7982, 769.1992 132.5588, 770.3223 151.8626, 771.4453 166.0809, 772.5684 150.6566, 773.6914 140.7099, 774.8145 157.965, 775.9375 167.8168, 777.0605 129.3289, 778.1836 150.2816, 779.3066 129.3233, 780.4297 161.1332, 781.5527 163.0684, 782.6758 144.0588, 783.7988 165.1003, 784.9219 163.8342, 786.0449 148.6552, 787.168 136.405, 788.291 133.9977, 789.4141 176.3664, 790.5371 136.1546, 791.6602 138.3574, 792.7832 150.0022, 793.9062 196.1216, 795.0293 129.1739, 796.1523 164.5852, 797.2754 147.8104, 798.3984 230.9241, 799.5215 149.8057, 800.6445 162.8665, 801.7676 146.731, 802.8906 165.1081, 804.0137 118.6547, 805.1367 115.03, 806.2598 118.3285, 807.3828 209.7621, 808.5059 140.5895, 809.6289 166.6642, 810.752 159.4427, 811.875 163.0383, 812.998 118.2656, 814.1211 140.9057, 815.2441 135.7642, 816.3672 152.0857, 817.4902 132.7972, 818.6133 128.899, 819.7363 141.8411, 820.8594 127.8597, 821.9824 146.8647, 823.1055 132.0674, 824.2285 111.6561, 825.3516 168.9594, 826.4746 132.6742, 827.5977 135.599, 828.7207 137.3254, 829.8438 149.8068, 830.9668 115.8571, 832.0898 127.0069, 833.2129 126.7915, 834.3359 159.6606, 835.459 125.4749, 836.582 151.1619, 837.7051 139.1966, 838.8281 144.6846, 839.9512 111.4835, 841.0742 157.2786, 842.1973 136.6348, 843.3203 163.982, 844.4434 157.0819, 845.5664 130.6055, 846.6895 146.8799, 847.8125 135.2814, 848.9355 126.0358, 850.0586 158.0935, 851.1816 140.8864, 852.3047 185.3675, 853.4277 142.0491, 854.5508 143.1959, 855.6738 130.0952, 856.7969 166.0639, 857.9199 127.4877, 859.043 130.4913, 860.166 101.0104, 861.2891 167.6629, 862.4121 160.5474, 863.5352 121.8709, 864.6582 144.9597, 865.7812 179.468, 866.9043 127.3618, 868.0273 160.1263, 869.1504 137.9112, 870.2734 152.0091, 871.3965 128.7231, 872.5195 129.4403, 873.6426 138.4448, 874.7656 139.5297, 875.8887 112.9495, 877.0117 147.5561, 878.1348 127.1648, 879.2578 166.7539, 880.3809 131.2141, 881.5039 129.8876, 882.627 109.9107, 883.75 148.3714, 884.873 136.6188, 885.9961 137.8246, 887.1191 122.8237, 888.2422 224.352, 889.3652 136.7937, 890.4883 156.6471, 891.6113 143.0798, 892.7344 138.2576, 893.8574 147.3804, 894.9805 124.2097, 896.1035 150.4969, 897.2266 227.9932, 898.3496 173.8189, 899.4727 189.0528, 900.5957 167.949, 901.7188 151.9339, 902.8418 123.527, 903.9648 138.6668, 905.0879 140.6758, 906.2109 184.1979, 907.334 146.6439, 908.457 140.0961, 909.5801 131.8272, 910.7031 153.3033, 911.8262 142.7387, 912.9492 149.5238, 914.0723 120.926, 915.1953 148.6385, 916.3184 128.558, 917.4414 134.2926, 918.5645 118.5999, 919.6875 151.6737, 920.8105 134.9309, 921.9336 129.6841, 923.0566 113.1532, 924.1797 178.23, 925.3027 123.1539, 926.4258 126.4869, 927.5488 125.6585, 928.6719 149.5382, 929.7949 154.0495, 930.918 144.5078, 932.041 143.1831, 933.1641 157.4524, 934.2871 127.6875, 935.4102 130.4634, 936.5332 126.5957, 937.6562 159.715, 938.7793 133.6424, 939.9023 152.5786, 941.0254 132.5255, 942.1484 177.9746, 943.2715 159.804, 944.3945 129.6042, 945.5176 116.615, 946.6406 140.6677, 947.7637 106.1971, 948.8867 125.3411, 950.0098 121.8736, 951.1328 153.1944, 952.2559 138.0723, 953.3789 168.4074, 954.502 126.2139, 955.625 172.1059, 956.748 121.3275, 957.8711 135.5126, 958.9941 142.3839, 960.1172 172.4805, 961.2402 139.7959, 962.3633 130.0253, 963.4863 138.3529, 964.6094 170.1563, 965.7324 120.1624, 966.8555 149.6772, 967.9785 136.9364, 969.1016 160.4694, 970.2246 152.4679, 971.3477 134.4364, 972.4707 158.8159, 973.5938 147.7361, 974.7168 139.5748, 975.8398 176.7323, 976.9629 118.4103, 978.0859 187.3716, 979.209 147.2379, 980.332 146.6024, 981.4551 114.2794, 982.5781 162.0456, 983.7012 134.7744, 984.8242 164.4563, 985.9473 131.3425, 987.0703 183.6744, 988.1934 132.1424, 989.3164 147.725, 990.4395 118.4573, 991.5625 145.0069, 992.6855 126.4855, 993.8086 186.4002, 994.9316 143.927, 996.0547 194.4965, 997.1777 152.0875, 998.3008 165.2998, 999.4238 163.9552, 1000.547 164.3818, 1001.67 141.0457, 1002.793 144.3319, 1003.916 142.8045, 1005.039 154.8938, 1006.162 149.9337, 1007.285 159.0438, 1008.408 158.0946, 1009.531 150.0792, 1010.654 141.7216, 1011.777 148.895, 1012.9 120.4251, 1014.023 161.9466, 1015.146 146.1399, 1016.27 132.0592, 1017.393 138.4932, 1018.516 146.25, 1019.639 136.1958, 1020.762 138.9608, 1021.885 134.8753, 1023.008 147.9642, 1024.131 137.6717, 1025.254 133.6178, 1026.377 133.291, 1027.5 155.1872, 1028.623 153.7554, 1029.746 142.7947, 1030.869 147.6405, 1031.992 156.9731, 1033.115 166.6393, 1034.238 138.4631, 1035.361 139.9295, 1036.484 142.7323, 1037.607 139.6112, 1038.73 118.4111, 1039.854 162.6485, 1040.977 158.7195, 1042.1 139.9435, 1043.223 148.8214, 1044.346 143.3251, 1045.469 158.1027, 1046.592 171.187, 1047.715 154.1831, 1048.838 148.3885, 1049.961 191.9611, 1051.084 126.1118, 1052.207 141.6079, 1053.33 134.2655, 1054.453 194.5351, 1055.576 162.7001, 1056.699 160.005, 1057.822 152.5426, 1058.945 192.344, 1060.068 130.3458, 1061.191 164.0607, 1062.314 152.0236, 1063.438 150.7619, 1064.561 173.2847, 1065.684 164.6964, 1066.807 132.6625, 1067.93 181.8156, 1069.053 127.4422, 1070.176 125.4174, 1071.299 103.3692, 1072.422 150.3366, 1073.545 141.53, 1074.668 147.5767, 1075.791 135.0039, 1076.914 142.608, 1078.037 136.2946, 1079.16 122.4368, 1080.283 114.1924, 1081.406 188.1307, 1082.529 129.7413, 1083.652 125.1744, 1084.775 128.7624, 1085.898 172.8065, 1087.021 128.4673, 1088.145 161.9026, 1089.268 146.7803, 1090.391 172.6444, 1091.514 135.6243, 1092.637 128.4522, 1093.76 124.2127, 1094.883 161.3831, 1096.006 157.1319, 1097.129 145.2227, 1098.252 163.0615, 1099.375 159.0912, 1100.498 149.4232, 1101.621 132.7801, 1102.744 127.3605, 1103.867 175.915, 1104.99 155.72, 1106.113 149.0143, 1107.236 153.9709, 1108.359 159.6541, 1109.482 199.1363, 1110.605 159.9646, 1111.729 179.9571, 1112.852 228.8742, 1113.975 149.1265, 1115.098 150.4808, 1116.221 128.3887, 1117.344 159.1804, 1118.467 147.0634, 1119.59 139.9344, 1120.713 148.552, 1121.836 167.692, 1122.959 135.4189, 1124.082 164.3615, 1125.205 131.0229, 1126.328 150.697, 1127.451 167.8959, 1128.574 149.0315, 1129.697 147.9733, 1130.82 168.2752, 1131.943 147.4229, 1133.066 155.3334, 1134.189 160.7157, 1135.312 156.3212, 1136.436 127.0718, 1137.559 110.8946, 1138.682 138.8544, 1139.805 144.0245, 1140.928 149.2864, 1142.051 139.6164, 1143.174 148.8933, 1144.297 155.7288, 1145.42 158.4362, 1146.543 159.5002, 1147.666 121.4445, 1148.789 163.2699, 1149.912 126.9631, 1151.035 134.1342, 1152.158 126.7636, 1153.281 155.1006, 1154.404 139.0552, 1155.527 152.2648, 1156.65 135.5066, 1157.773 156.6435, 1158.896 156.4559, 1160.02 140.4178, 1161.143 155.4383, 1162.266 183.3955, 1163.389 165.398, 1164.512 163.2761, 1165.635 141.9245, 1166.758 173.7995, 1167.881 141.6278, 1169.004 147.552, 1170.127 160.5382, 1171.25 173.9447, 1172.373 153.477, 1173.496 170.3273, 1174.619 177.0359, 1175.742 147.367, 1176.865 132.6831, 1177.988 185.2426, 1179.111 137.2895, 1180.234 180.03, 1181.357 143.221, 1182.48 127.9644, 1183.604 123.4308, 1184.727 165.783, 1185.85 136.3358, 1186.973 175.3339, 1188.096 133.5624, 1189.219 180.7022, 1190.342 128.1407, 1191.465 143.5428, 1192.588 130.472, 1193.711 177.4409, 1194.834 153.6031, 1195.957 153.7982, 1197.08 134.2106, 1198.203 170.2529, 1199.326 144.1722, 1200.449 147.2639, 1201.572 123.887, 1202.695 159.0342, 1203.818 116.1475, 1204.941 114.1563, 1206.064 108.8599, 1207.188 162.6029, 1208.311 139.5342, 1209.434 154.7444, 1210.557 154.81, 1211.68 175.6256, 1212.803 135.1724, 1213.926 154.0493, 1215.049 143.9663, 1216.172 152.738, 1217.295 167.7163, 1218.418 153.4874, 1219.541 180.1752, 1220.664 188.4289, 1221.787 134.3524, 1222.91 133.5933, 1224.033 127.9412, 1225.156 163.9969, 1226.279 169.0984, 1227.402 128.5597, 1228.525 140.8983, 1229.648 163.052, 1230.771 136.6312, 1231.895 144.9613, 1233.018 135.5009, 1234.141 137.3263, 1235.264 138.2808, 1236.387 146.7556, 1237.51 121.3659, 1238.633 122.0737, 1239.756 122.4168, 1240.879 121.9745, 1242.002 112.6564, 1243.125 180.6704, 1244.248 136.0832, 1245.371 188.1291, 1246.494 137.4483, 1247.617 208.6624, 1248.74 118.4948, 1249.863 111.0861, 1250.986 141.3754, 1252.109 187.0336, 1253.232 155.7255, 1254.355 184.1002, 1255.479 186.2359, 1256.602 174.2971, 1257.725 135.9482, 1258.848 130.0531, 1259.971 157.6596, 1261.094 164.4085, 1262.217 167.692, 1263.34 166.3355, 1264.463 175.104, 1265.586 198.9345, 1266.709 149.8165, 1267.832 143.1735, 1268.955 148.6973, 1270.078 172.5025, 1271.201 173.5612, 1272.324 169.0333, 1273.447 148.9619, 1274.57 156.5235, 1275.693 126.6306, 1276.816 158.1053, 1277.939 131.5691, 1279.062 173.4705, 1280.186 143.9053, 1281.309 137.8622, 1282.432 136.5743, 1283.555 148.3811, 1284.678 122.0731, 1285.801 147.9408, 1286.924 171.9801, 1288.047 194.1853, 1289.17 121.4397, 1290.293 120.0914, 1291.416 117.7891, 1292.539 135.6755, 1293.662 123.978, 1294.785 146.3404, 1295.908 175.119, 1297.031 147.6724, 1298.154 140.56, 1299.277 148.0601, 1300.4 138.5042, 1301.523 168.9369, 1302.646 148.3013, 1303.77 130.6239, 1304.893 142.5261, 1306.016 148.51, 1307.139 136.4995, 1308.262 143.1029, 1309.385 121.7717, 1310.508 204.1393, 1311.631 136.8021, 1312.754 137.686, 1313.877 124.3822" style="stroke: rgb(97%,45%,8%); stroke-linecap: round; stroke-width: 1.2; fill: None; fill-rule: evenodd;"/>
					<polyline points="741.123 148.306, 742.2461 146.3679, 743.3691 149.9424, 744.4922 148.9746, 745.6152 152.9985, 746.7383 156.6509, 747.8613 148.5107, 748.9844 156.7782, 750.1074 142.3734, 751.2305 142.792, 752.3535 136.0958, 753.4766 153.9747, 754.5996 139.98, 755.7227 154.5768, 756.8457 147.2681, 757.9688 151.7662, 759.0918 146.09, 760.2148 147.9518, 761.3379 142.2226, 762.4609 158.4193, 763.584 142.7726, 764.707 145.9393, 765.8301 145.5984, 766.9531 146.5867, 768.0762 135.3222, 769.1992 149.6006, 770.3223 142.0395, 771.4453 142.6017, 772.5684 139.7698, 773.6914 154.2094, 774.8145 145.45, 775.9375 153.9452, 777.0605 151.4078, 778.1836 150.0459, 779.3066 149.0959, 780.4297 148.8896, 781.5527 136.4909, 782.6758 144.2389, 783.7988 149.3596, 784.9219 149.2526, 786.0449 136.4901, 787.168 156.659, 788.291 126.9341, 789.4141 150.4267, 790.5371 137.4747, 791.6602 150.7099, 792.7832 152.122, 793.9062 154.9886, 795.0293 144.8295, 796.1523 142.1757, 797.2754 143.8475, 798.3984 147.4012, 799.5215 149.7659, 800.6445 150.6522, 801.7676 152.4959, 802.8906 147.5454, 804.0137 146.1874, 805.1367 145.8091, 806.2598 133.6466, 807.3828 144.1821, 808.5059 141.5888, 809.6289 150.8031, 810.752 140.8748, 811.875 145.9157, 812.998 142.5729, 814.1211 145.7676, 815.2441 143.1219, 816.3672 143.5602, 817.4902 140.8699, 818.6133 147.5359, 819.7363 141.3307, 820.8594 148.0603, 821.9824 133.4149, 823.1055 148.2854, 824.2285 136.1719, 825.3516 139.214, 826.4746 140.6005, 827.5977 147.2107, 828.7207 142.354, 829.8438 143.8261, 830.9668 135.6884, 832.0898 139.7484, 833.2129 138.5722, 834.3359 146.6705, 835.459 142.3558, 836.582 148.7827, 837.7051 145.3456, 838.8281 145.637, 839.9512 140.2784, 841.0742 149.6555, 842.1973 144.8837, 843.3203 146.4443, 844.4434 138.5562, 845.5664 154.4564, 846.6895 153.598, 847.8125 151.7046, 848.9355 144.2945, 850.0586 141.122, 851.1816 144.9361, 852.3047 149.1264, 853.4277 148.992, 854.5508 141.6211, 855.6738 144.8263, 856.7969 151.9689, 857.9199 145.5587, 859.043 156.7186, 860.166 152.6836, 861.2891 151.5892, 862.4121 146.075, 863.5352 145.3821, 864.6582 146.0473, 865.7812 148.9157, 866.9043 138.6611, 868.0273 145.9973, 869.1504 141.157, 870.2734 148.0516, 871.3965 143.069, 872.5195 148.3445, 873.6426 149.7597, 874.7656 153.3027, 875.8887 142.2519, 877.0117 141.263, 878.1348 144.3653, 879.2578 147.5668, 880.3809 149.1114, 881.5039 149.4816, 882.627 152.0165, 883.75 149.6005, 884.873 137.9608, 885.9961 145.648, 887.1191 149.8175, 888.2422 147.3719, 889.3652 131.053, 890.4883 150.374, 891.6113 144.6902, 892.7344 153.3526, 893.8574 144.2678, 894.9805 147.5449, 896.1035 135.4739, 897.2266 148.216, 898.3496 151.1265, 899.4727 153.316, 900.5957 144.2029, 901.7188 137.1137, 902.8418 137.5763, 903.9648 137.0482, 905.0879 138.4761, 906.2109 148.4526, 907.334 137.8597, 908.457 144.8537, 909.5801 144.1966, 910.7031 145.5452, 911.8262 148.4844, 912.9492 147.3753, 914.0723 143.2094, 915.1953 147.4562, 916.3184 142.0478, 917.4414 147.9763, 918.5645 140.2354, 919.6875 134.2634, 920.8105 142.9029, 921.9336 148.7072, 923.0566 141.4658, 924.1797 134.6046, 925.3027 138.1334, 926.4258 144.9863, 927.5488 144.5266, 928.6719 145.2736, 929.7949 135.2598, 930.918 155.4392, 932.041 148.8305, 933.1641 154.6737, 934.2871 142.9467, 935.4102 148.6108, 936.5332 148.3172, 937.6562 154.8477, 938.7793 137.8539, 939.9023 154.0248, 941.0254 155.2749, 942.1484 145.6524, 943.2715 139.0261, 944.3945 150.4062, 945.5176 151.7836, 946.6406 152.1371, 947.7637 137.788, 948.8867 146.8288, 950.0098 146.194, 951.1328 149.2183, 952.2559 138.2271, 953.3789 144.8283, 954.502 153.1277, 955.625 157.354, 956.748 150.7836, 957.8711 144.9865, 958.9941 143.0108, 960.1172 142.2137, 961.2402 144.6191, 962.3633 139.1662, 963.4863 146.5631, 964.6094 146.4475, 965.7324 146.6046, 966.8555 146.6781, 967.9785 141.6834, 969.1016 152.0897, 970.2246 145.4111, 971.3477 144.9768, 972.4707 143.9797, 973.5938 150.7498, 974.7168 147.1566, 975.8398 147.6064, 976.9629 140.8592, 978.0859 144.6994, 979.209 145.3827, 980.332 137.3867, 981.4551 145.7709, 982.5781 150.7645, 983.7012 141.7164, 984.8242 147.3834, 985.9473 141.6092, 987.0703 140.7017, 988.1934 144.507, 989.3164 149.8223, 990.4395 139.3113, 991.5625 153.943, 992.6855 140.2567, 993.8086 146.3627, 994.9316 151.7252, 996.0547 148.7833, 997.1777 149.9343, 998.3008 153.3644, 999.4238 149.2041, 1000.547 150.5556, 1001.67 140.4946, 1002.793 151.3789, 1003.916 141.62, 1005.039 143.8839, 1006.162 142.3966, 1007.285 147.0543, 1008.408 143.2789, 1009.531 147.9665, 1010.654 142.0277, 1011.777 150.8935, 1012.9 147.2855, 1014.023 140.7337, 1015.146 144.6416, 1016.27 147.3903, 1017.393 138.3351, 1018.516 145.5324, 1019.639 147.1715, 1020.762 146.5195, 1021.885 145.6729, 1023.008 150.5701, 1024.131 135.1134, 1025.254 144.8493, 1026.377 146.4046, 1027.5 158.8371, 1028.623 143.4045, 1029.746 145.2688, 1030.869 142.3581, 1031.992 147.0218, 1033.115 136.4185, 1034.238 148.8918, 1035.361 151.044, 1036.484 138.9993, 1037.607 141.7144, 1038.73 149.0059, 1039.854 143.2068, 1040.977 146.0737, 1042.1 149.9508, 1043.223 147.8818, 1044.346 143.6585, 1045.469 149.609, 1046.592 146.8406, 1047.715 147.2996, 1048.838 144.2775, 1049.961 149.5549, 1051.084 144.5868, 1052.207 138.7771, 1053.33 135.3163, 1054.453 151.3365, 1055.576 148.4892, 1056.699 147.687, 1057.822 146.9998, 1058.945 156.2637, 1060.068 146.7135, 1061.191 146.5848, 1062.314 149.4485, 1063.438 151.3817, 1064.561 150.9549, 1065.684 151.7379, 1066.807 142.973, 1067.93 148.1339, 1069.053 144.8184, 1070.176 148.6895, 1071.299 155.0373, 1072.422 156.5858, 1073.545 140.153, 1074.668 158.3432, 1075.791 140.9177, 1076.914 143.7071, 1078.037 149.48, 1079.16 155.9357, 1080.283 141.5912, 1081.406 155.7798, 1082.529 144.0654, 1083.652 154.284, 1084.775 135.5074, 1085.898 147.9223, 1087.021 148.6938, 1088.145 143.0954, 1089.268 150.7839, 1090.391 153.1235, 1091.514 150.4953, 1092.637 147.8151, 1093.76 140.3947, 1094.883 148.6668, 1096.006 152.9579, 1097.129 148.0502, 1098.252 148.9859, 1099.375 146.0849, 1100.498 144.6456, 1101.621 150.4315, 1102.744 149.9328, 1103.867 138.9084, 1104.99 140.5073, 1106.113 148.6121, 1107.236 149.3334, 1108.359 157.9526, 1109.482 142.7154, 1110.605 154.9816, 1111.729 150.8366, 1112.852 154.6401, 1113.975 151.3019, 1115.098 148.3725, 1116.221 139.2495, 1117.344 160.3487, 1118.467 142.3886, 1119.59 157.0096, 1120.713 143.542, 1121.836 151.0943, 1122.959 138.1043, 1124.082 142.3509, 1125.205 146.0935, 1126.328 143.8624, 1127.451 134.0201, 1128.574 157.3608, 1129.697 141.5186, 1130.82 145.5134, 1131.943 141.761, 1133.066 150.6331, 1134.189 142.7241, 1135.312 147.9254, 1136.436 148.8768, 1137.559 147.7485, 1138.682 139.0432, 1139.805 149.8205, 1140.928 140.3293, 1142.051 145.4215, 1143.174 141.3618, 1144.297 142.6083, 1145.42 146.669, 1146.543 148.788, 1147.666 141.8223, 1148.789 144.602, 1149.912 144.6214, 1151.035 154.7674, 1152.158 142.1038, 1153.281 149.7995, 1154.404 139.6125, 1155.527 147.4196, 1156.65 145.5785, 1157.773 149.0488, 1158.896 144.8793, 1160.02 151.5978, 1161.143 142.286, 1162.266 145.5525, 1163.389 148.5952, 1164.512 154.5917, 1165.635 140.6232, 1166.758 160.236, 1167.881 136.5524, 1169.004 153.5881, 1170.127 138.011, 1171.25 151.6356, 1172.373 149.7517, 1173.496 154.2224, 1174.619 146.3226, 1175.742 160.8178, 1176.865 138.8715, 1177.988 160.4595, 1179.111 146.6383, 1180.234 149.8939, 1181.357 141.0669, 1182.48 153.6458, 1183.604 144.6434, 1184.727 144.4169, 1185.85 145.63, 1186.973 146.7269, 1188.096 132.6471, 1189.219 140.0999, 1190.342 141.0652, 1191.465 150.4572, 1192.588 138.8567, 1193.711 142.7258, 1194.834 142.9573, 1195.957 149.3759, 1197.08 144.2055, 1198.203 145.4585, 1199.326 140.0043, 1200.449 140.713, 1201.572 143.7699, 1202.695 145.536, 1203.818 146.1441, 1204.941 146.5854, 1206.064 146.7875, 1207.188 151.2023, 1208.311 146.3083, 1209.434 143.3099, 1210.557 141.8467, 1211.68 150.1642, 1212.803 141.2935, 1213.926 141.7157, 1215.049 142.7526, 1216.172 148.8752, 1217.295 138.5915, 1218.418 143.9021, 1219.541 142.8856, 1220.664 144.7499, 1221.787 143.2904, 1222.91 155.7029, 1224.033 150.783, 1225.156 147.2141, 1226.279 144.4762, 1227.402 157.8233, 1228.525 144.5689, 1229.648 137.3226, 1230.771 142.898, 1231.895 142.2954, 1233.018 138.8466, 1234.141 143.8947, 1235.264 146.25, 1236.387 153.3332, 1237.51 145.1599, 1238.633 150.9354, 1239.756 146.5042, 1240.879 151.7376, 1242.002 146.1095, 1243.125 140.8948, 1244.248 156.1096, 1245.371 149.8682, 1246.494 139.5211, 1247.617 154.14, 1248.74 140.7703, 1249.863 151.5445, 1250.986 146.4015, 1252.109 148.7429, 1253.232 150.2351, 1254.355 148.1281, 1255.479 153.8328, 1256.602 150.4618, 1257.725 148.7416, 1258.848 149.9656, 1259.971 134.503, 1261.094 153.468, 1262.217 155.0188, 1263.34 150.8608, 1264.463 150.0757, 1265.586 146.028, 1266.709 138.9153, 1267.832 157.2223, 1268.955 137.4111, 1270.078 149.0984, 1271.201 153.773, 1272.324 150.8457, 1273.447 144.9688, 1274.57 132.6672, 1275.693 149.5762, 1276.816 149.5716, 1277.939 138.4833, 1279.062 146.4122, 1280.186 147.0811, 1281.309 148.613, 1282.432 139.9321, 1283.555 135.3737, 1284.678 152.525, 1285.801 149.3087, 1286.924 137.9515, 1288.047 153.6303, 1289.17 148.1836, 1290.293 143.4536, 1291.416 141.0874, 1292.539 153.7668, 1293.662 145.5672, 1294.785 143.7352, 1295.908 143.2016, 1297.031 148.7512, 1298.154 143.6738, 1299.277 139.7739, 1300.4 142.0921, 1301.523 143.8114, 1302.646 140.2196, 1303.77 148.4697, 1304.893 142.8692, 1306.016 149.5419, 1307.139 140.2157, 1308.262 157.7836, 1309.385 148.4506, 1310.508 146.7143, 1311.631 144.6182, 1312.754 152.8522, 1313.877 134.0269" style="stroke: rgb(65%,33%,96%); stroke-linecap: round; stroke-width: 1.2; fill: None; fill-rule: evenodd;"/>
				</g>
			</g>
			<text x="983.4835" y="273.0" style="font-family: Helvetica-Bold; font-size: 11px;fill: rgb(0%,0%,0%); stroke:none;" transform="translate(0,546) scale(1,-1)">Y-axis frequency</text>
			<text x="976.2315" y="80.0" style="font-family: Helvetica; font-size: 9px;fill: rgb(0%,0%,0%); stroke:none;" transform="translate(0,160) scale(1,-1)">cycles per weight position</text>
		</g>
	</g>
</svg>
